<svg xmlns="http://www.w3.org/2000/svg" width="1000" height="1000" viewBox="0 0 1000 1000">
  <metadata><?xpacket begin="﻿" id="W5M0MpCehiHzreSzNTczkc9d"?>
<x:xmpmeta xmlns:x="adobe:ns:meta/" x:xmptk="Adobe XMP Core 5.6-c142 79.160924, 2017/07/13-01:06:39        ">
   <rdf:RDF xmlns:rdf="http://www.w3.org/1999/02/22-rdf-syntax-ns#">
      <rdf:Description rdf:about=""/>
   </rdf:RDF>
</x:xmpmeta>
                                                                                                    
                                                                                                    
                                                                                                    
                                                                                                    
                                                                                                    
                                                                                                    
                                                                                                    
                                                                                                    
                                                                                                    
                                                                                                    
                                                                                                    
                                                                                                    
                                                                                                    
                                                                                                    
                                                                                                    
                                                                                                    
                                                                                                    
                                                                                                    
                                                                                                    
                                                                                                    
                           
<?xpacket end="w"?></metadata>
<defs>
    <style>
      .cls-1, .cls-2 {
        fill: #fff;
      }

      .cls-1, .cls-4 {
        fill-rule: evenodd;
      }

      .cls-3, .cls-4 {
        fill: #437ba1;
      }
    </style>
  </defs>
  <path class="cls-1" d="M500,0c276.142,0,500,223.858,500,500s-223.858,500-500,500S0,776.142,0,500,223.858,0,500,0ZM308.5,400A85.5,85.5,0,1,1,223,485.5,85.5,85.5,0,0,1,308.5,400Z"/>
  <rect class="cls-2" width="1000" height="1000" rx="111" ry="111"/>
  <circle id="Ellipse_1_copy" data-name="Ellipse 1 copy" class="cls-3" cx="308.5" cy="485.5" r="85.5"/>
  <circle id="Ellipse_1_copy_2" data-name="Ellipse 1 copy 2" class="cls-3" cx="664.5" cy="658.5" r="85.5"/>
  <path id="Rounded_Rectangle_1" data-name="Rounded Rectangle 1" class="cls-4" d="M291.79,466.358l366.281-172.81a10,10,0,0,1,13.311,4.777l5.973,12.661a10,10,0,0,1-4.777,13.311L306.3,497.108a10,10,0,0,1-13.311-4.777l-5.974-12.662A10,10,0,0,1,291.79,466.358Z"/>
  <path id="Rounded_Rectangle_1_copy" data-name="Rounded Rectangle 1 copy" class="cls-4" d="M306.134,474.656L674.891,642.119a10,10,0,0,1,4.97,13.24l-5.789,12.747a10,10,0,0,1-13.24,4.97L292.076,505.614a10,10,0,0,1-4.97-13.24l5.788-12.748A10,10,0,0,1,306.134,474.656Z"/>
  <circle id="Ellipse_1_copy_3" data-name="Ellipse 1 copy 3" class="cls-3" cx="663.5" cy="314.5" r="85.5"/>
  <circle class="cls-2" cx="664.5" cy="312.5" r="42.5"/>
  <circle id="Ellipse_2_copy" data-name="Ellipse 2 copy" class="cls-2" cx="308.5" cy="486.5" r="42.5"/>
  <circle id="Ellipse_2_copy_2" data-name="Ellipse 2 copy 2" class="cls-2" cx="664.5" cy="656.5" r="42.5"/>
</svg>
